<?xml version="1.0" encoding="UTF-8"?>
<svg id="wave" style="transform: rotate(180deg); transition: 0.3s" viewBox="0 0 1440 140" version="1.1" xmlns="http://www.w3.org/2000/svg" xmlns:xlink="http://www.w3.org/1999/xlink">
    <defs>
        <linearGradient id="gradient-0" x1="0" x2="0" y1="1" y2="0">
            <stop stop-color="rgba(243, 223, 73, 1)" offset="0%" />
            <stop stop-color="rgba(243, 223, 73, 1)" offset="100%" />
        </linearGradient>
    </defs>
    <path style="transform: translate(0, 0px); opacity: 1" fill="url(#gradient-0)" d="M0,126 L120,98 L240,112 L360,28 L480,126 L600,70 L720,112 L840,112 L960,98 L1080,70 L1200,0 L1320,112 L1440,0 L1560,14 L1680,70 L1800,42 L1920,70 L2040,126 L2160,28 L2280,14 L2400,112 L2520,14 L2640,112 L2760,56 L2880,112 L2880,140 L2760,140 L2640,140 L2520,140 L2400,140 L2280,140 L2160,140 L2040,140 L1920,140 L1800,140 L1680,140 L1560,140 L1440,140 L1320,140 L1200,140 L1080,140 L960,140 L840,140 L720,140 L600,140 L480,140 L360,140 L240,140 L120,140 L0,140 Z" />
    <defs>
        <linearGradient id="gradient-1" x1="0" x2="0" y1="1" y2="0">
            <stop stop-color="rgba(243, 106, 62, 1)" offset="0%" />
            <stop stop-color="rgba(255, 179, 11, 1)" offset="100%" />
        </linearGradient>
    </defs>
    <path style="transform: translate(0, 50px); opacity: 0.9" fill="url(#gradient-1)" d="M0,0 L120,42 L240,70 L360,0 L480,28 L600,14 L720,0 L840,126 L960,0 L1080,56 L1200,84 L1320,0 L1440,42 L1560,112 L1680,0 L1800,28 L1920,28 L2040,112 L2160,84 L2280,126 L2400,14 L2520,14 L2640,70 L2760,56 L2880,42 L2880,140 L2760,140 L2640,140 L2520,140 L2400,140 L2280,140 L2160,140 L2040,140 L1920,140 L1800,140 L1680,140 L1560,140 L1440,140 L1320,140 L1200,140 L1080,140 L960,140 L840,140 L720,140 L600,140 L480,140 L360,140 L240,140 L120,140 L0,140 Z" />
    <defs>
        <linearGradient id="gradient-2" x1="0" x2="0" y1="1" y2="0">
            <stop stop-color="rgba(243, 106, 62, 1)" offset="0%" />
            <stop stop-color="rgba(255, 179, 11, 1)" offset="100%" />
        </linearGradient>
    </defs>
    <path style="transform: translate(0, 100px); opacity: 0.8" fill="url(#gradient-2)" d="M0,84 L120,56 L240,112 L360,14 L480,0 L600,98 L720,56 L840,0 L960,126 L1080,112 L1200,14 L1320,42 L1440,84 L1560,14 L1680,14 L1800,84 L1920,0 L2040,112 L2160,70 L2280,42 L2400,126 L2520,42 L2640,0 L2760,56 L2880,14 L2880,140 L2760,140 L2640,140 L2520,140 L2400,140 L2280,140 L2160,140 L2040,140 L1920,140 L1800,140 L1680,140 L1560,140 L1440,140 L1320,140 L1200,140 L1080,140 L960,140 L840,140 L720,140 L600,140 L480,140 L360,140 L240,140 L120,140 L0,140 Z" />
</svg>
