<?xml version="1.0" encoding="UTF-8"?>
<svg id="javascript-logo" width="218px" height="218px" viewBox="0 0 218 218" version="1.1" xmlns="http://www.w3.org/2000/svg" xmlns:xlink="http://www.w3.org/1999/xlink">
    <g>
        <path d="M0,0 L218,0 L218,218 L0,218 L0,0 Z" fill="#F3DF49" />
        <path d="M 57.320312 182.175781 L 74.003906 172.082031 C 77.222656 177.785156 80.148438 182.613281 87.171875 182.613281 C 93.902344 182.613281 98.148438 179.980469 98.148438 169.738281 L 98.148438 100.082031 L 118.632812 100.082031 L 118.632812 170.027344 C 118.632812 191.246094 106.195312 200.90625 88.050781 200.90625 C 71.660156 200.90625 62.148438 192.417969 57.320312 182.175781" fill="#2E2E2C" />
        <path d="M 129.761719 179.980469 L 146.441406 170.324219 C 150.832031 177.496094 156.539062 182.761719 166.636719 182.761719 C 175.125 182.761719 180.539062 178.519531 180.539062 172.664062 C 180.539062 165.640625 174.980469 163.152344 165.613281 159.054688 L 160.492188 156.859375 C 145.710938 150.570312 135.90625 142.667969 135.90625 125.984375 C 135.90625 110.621094 147.613281 98.910156 165.90625 98.910156 C 178.929688 98.910156 188.296875 103.449219 195.027344 115.300781 L 179.074219 125.546875 C 175.5625 119.253906 171.757812 116.765625 165.90625 116.765625 C 159.90625 116.765625 156.101562 120.570312 156.101562 125.546875 C 156.101562 131.691406 159.90625 134.179688 168.6875 137.984375 L 173.808594 140.179688 C 191.222656 147.644531 201.027344 155.25 201.027344 172.371094 C 201.027344 190.8125 186.539062 200.90625 167.078125 200.90625 C 148.054688 200.90625 135.761719 191.835938 129.761719 179.980469" fill="#2E2E2C" />
    </g>
</svg>
